<?xml version="1.0" encoding="UTF-8" standalone="no"?><!DOCTYPE svg PUBLIC "-//W3C//DTD SVG 1.1//EN" "http://www.w3.org/Graphics/SVG/1.1/DTD/svg11.dtd"><svg width="100%" height="100%" viewBox="0 0 2083 2083" version="1.1" xmlns="http://www.w3.org/2000/svg" xmlns:xlink="http://www.w3.org/1999/xlink" xml:space="preserve" xmlns:serif="http://www.serif.com/" style="fill-rule:evenodd;clip-rule:evenodd;stroke-linecap:round;stroke-linejoin:round;stroke-miterlimit:1.5;"><g><g><path d="M70.884,499.4c140.171,-44.11 352.252,-69.292 579.19,-94.557c9.357,-1.042 214.114,-8.646 468.859,-6.908c155.54,1.062 301.479,5.611 313.127,6.908c226.938,25.265 439.019,50.447 579.191,94.557" style="fill:#fff;fill-opacity:0;stroke:#fff;stroke-width:141.77px;"/><path d="M70.884,1041.07l1940.37,0" style="fill:#fff;fill-opacity:0;stroke:#fff;stroke-width:141.77px;"/><path d="M70.884,1582.73c140.171,44.11 352.252,69.292 579.19,94.557c9.357,1.042 214.114,8.646 468.859,6.908c155.54,-1.062 301.479,-5.611 313.127,-6.908c226.938,-25.265 439.019,-50.447 579.191,-94.557" style="fill:#fff;fill-opacity:0;stroke:#fff;stroke-width:141.77px;"/><path d="M499.4,2011.25c-44.11,-140.172 -69.292,-352.253 -94.557,-579.191c-1.042,-9.357 -8.646,-214.114 -6.908,-468.859c1.062,-155.54 5.611,-301.479 6.908,-313.127c25.265,-226.938 50.447,-439.019 94.557,-579.19" style="fill:#fff;fill-opacity:0;stroke:#fff;stroke-width:141.77px;"/><path d="M1041.07,2011.25l0,-1940.37" style="fill:#fff;fill-opacity:0;stroke:#fff;stroke-width:141.77px;"/><path d="M1582.73,2011.25c44.11,-140.172 69.292,-352.253 94.557,-579.191c1.042,-9.357 8.646,-214.114 6.908,-468.859c-1.062,-155.54 -5.611,-301.479 -6.908,-313.127c-25.265,-226.938 -50.447,-439.019 -94.557,-579.19" style="fill:#fff;fill-opacity:0;stroke:#fff;stroke-width:141.77px;"/></g></g></svg>