<?xml version="1.0" encoding="UTF-8" standalone="no"?><!DOCTYPE svg PUBLIC "-//W3C//DTD SVG 1.1//EN" "http://www.w3.org/Graphics/SVG/1.1/DTD/svg11.dtd"><svg width="100%" height="100%" viewBox="0 0 2083 2083" version="1.1" xmlns="http://www.w3.org/2000/svg" xmlns:xlink="http://www.w3.org/1999/xlink" xml:space="preserve" xmlns:serif="http://www.serif.com/" style="fill-rule:evenodd;clip-rule:evenodd;stroke-linecap:round;stroke-linejoin:round;stroke-miterlimit:1.5;"><g><g><path d="M140.863,499.4c354.107,83.322 507.658,154.858 692.859,202.243c9.444,2.416 80.867,10.282 151.369,12.804c84.115,3.009 166.295,-0.746 254.992,-11.231c7.796,-0.922 60.496,-14.451 147.334,-42.216c137.198,-43.867 289.772,-99.461 553.854,-161.6" style="fill:#fff;fill-opacity:0;stroke:#fff;stroke-width:141.77px;"/><path d="M166.067,1042.1c583.333,-0.345 1166.67,-0.689 1750,-1.034" style="fill:#fff;fill-opacity:0;stroke:#fff;stroke-width:141.77px;"/><path d="M140.863,1582.73c354.106,-82.821 507.658,-160.78 692.859,-207.77c9.242,-2.344 82.159,-10.524 155.952,-12.951c82.526,-2.713 163.331,1.095 250.409,11.388c6.861,0.812 56.804,12.983 147.334,43.002c137.198,45.494 289.774,104.566 553.854,166.331" style="fill:#fff;fill-opacity:0;stroke:#fff;stroke-width:141.77px;"/><path d="M499.4,1941.27c82.821,-354.106 160.78,-507.658 207.77,-692.859c2.327,-9.175 10.654,-82.362 13.024,-157.834c2.57,-81.784 -1.264,-162.252 -11.461,-248.526c-0.863,-7.297 -13.519,-58.344 -43.002,-150.043c-45.492,-141.495 -104.566,-302.008 -166.331,-566.463" style="fill:#fff;fill-opacity:0;stroke:#fff;stroke-width:141.77px;"/><path d="M1041.07,1916.07l0,-1770.83" style="fill:#fff;fill-opacity:0;stroke:#fff;stroke-width:141.77px;"/><path d="M1582.73,1941.27c-82.821,-354.106 -160.78,-507.658 -207.77,-692.859c-2.344,-9.242 -10.524,-82.159 -12.951,-155.952c-2.713,-82.526 1.095,-163.331 11.388,-250.409c0.863,-7.296 13.519,-58.341 43.002,-150.042c45.493,-141.495 104.566,-302.008 166.331,-566.463" style="fill:#fff;fill-opacity:0;stroke:#fff;stroke-width:141.77px;"/></g></g></svg>